<svg width="253" height="34" viewBox="0 0 253 34" fill="none" xmlns="http://www.w3.org/2000/svg">
<g clip-path="url(#clip0_6100_12021)">
<path d="M7.89556 12.58C5.32667 12.58 3.24202 10.4954 3.24202 7.92647C3.24202 5.35758 5.32667 3.27293 7.89556 3.27293C10.4644 3.27293 12.5491 5.35758 12.5491 7.92647C12.5491 10.4954 10.4644 12.58 7.89556 12.58ZM28.8313 25.998C28.8313 25.8709 28.8279 25.7473 28.821 25.6236C28.821 25.579 28.8141 25.5343 28.8141 25.4931C28.8107 25.4141 28.8038 25.3352 28.797 25.2562C28.7901 25.2012 28.7867 25.1497 28.7798 25.0947C28.7729 25.0295 28.7626 24.9642 28.7558 24.8956C28.7489 24.8337 28.7386 24.7754 28.7283 24.7135C28.718 24.662 28.7111 24.6071 28.7008 24.5556C28.6871 24.4869 28.6768 24.4147 28.6596 24.3461C28.6562 24.3323 28.6527 24.3152 28.6493 24.3014C28.3814 23.0754 27.8319 21.9592 27.0695 21.0147L23.2917 15.8495H27.5537C28.1032 15.8495 28.5463 15.4065 28.5463 14.857V0.992525C28.5463 0.44303 28.1032 0 27.5537 0H7.92646C3.68505 0 0.223232 3.33131 0.010303 7.52121C0.00343434 7.65515 0 7.79253 0 7.92647C0 8.05354 0.00343434 8.17717 0.010303 8.30081C0.010303 8.34202 0.0137374 8.38667 0.0171717 8.42788C0.0240404 8.5103 0.0274747 8.58929 0.0343434 8.66828C0.0377778 8.7198 0.0446465 8.77131 0.0515152 8.81939C0.0583838 8.88808 0.0686869 8.9602 0.0789899 9.02889C0.0858586 9.08384 0.0961616 9.13879 0.10303 9.19374C0.113333 9.25556 0.123636 9.31394 0.133939 9.37232C0.18202 9.63333 0.243838 9.89091 0.31596 10.1451C0.319394 10.1588 0.322828 10.1725 0.326263 10.1863C0.353737 10.279 0.384646 10.3752 0.415556 10.4679C0.415556 10.4747 0.422424 10.4851 0.422424 10.4919C0.710909 11.3402 1.1402 12.1198 1.68283 12.8101L5.51212 18.0715H1.28101C0.731515 18.0715 0.288485 18.5145 0.288485 19.064V32.9319C0.288485 33.4814 0.731515 33.9244 1.28101 33.9244H20.9083C25.1497 33.9244 28.6149 30.5931 28.8244 26.4032C28.8313 26.2693 28.8347 26.1319 28.8347 25.998H28.8313Z" fill="#005763"/>
<path d="M52.1601 15.255C49.9827 14.9905 48.688 14.8738 48.688 13.7267C48.688 12.7548 49.7458 12.1675 51.3633 12.1675C52.9809 12.1675 54.1864 12.9025 54.3031 14.1079H58.2732C58.0672 11.0204 55.2716 9.22427 51.2122 9.22427C47.3314 9.19336 44.711 11.1647 44.711 14.1663C44.711 17.1679 47.4448 18.078 50.9753 18.4901C53.4171 18.813 54.444 18.9023 54.444 20.1386C54.444 21.1964 53.3862 21.7562 51.6518 21.7562C49.6221 21.7562 48.4751 20.8427 48.3274 19.5204H44.3848C44.5599 22.7556 47.4139 24.7269 51.6209 24.7269C55.828 24.7269 58.5034 22.814 58.5034 19.8158C58.5034 16.4055 55.6219 15.6087 52.1498 15.255H52.1601ZM78.4878 9.25518C76.1936 9.25518 74.4284 10.1962 73.3706 11.8138C72.4296 9.90084 70.6953 9.22427 68.8407 9.25518C66.6359 9.28609 65.3102 10.1378 64.4001 11.3158L64.0189 9.43376H60.4025V24.5517H64.5512V16.3162C64.5512 14.053 65.7292 12.6689 67.5219 12.6689C69.3147 12.6689 70.1698 13.8469 70.1698 16.1101V24.5517H74.3185V16.2853C74.3185 13.9911 75.524 12.6689 77.3201 12.6689C79.1163 12.6689 79.9371 13.8469 79.9371 16.1101V24.5517H84.0858V15.8732C84.0858 11.0204 81.6165 9.25518 78.4981 9.25518H78.4878ZM99.8425 20.1077V14.7536C99.8425 11.1372 97.4007 9.25174 93.1662 9.25174C89.1652 9.25174 86.4589 11.1921 86.167 14.1354H90.168C90.3431 13.0192 91.4318 12.2843 93.0494 12.2843C94.7838 12.2843 95.7557 13.1669 95.7557 14.52V15.255H92.7575C88.2276 15.255 85.8167 17.0786 85.8167 20.2863C85.8167 23.1677 88.1692 24.7269 91.4353 24.7269C93.7878 24.7269 95.3161 23.755 96.3773 22.079C96.3498 23.5214 97.0229 24.5517 99.1728 24.5517H101.292V21.0521H100.821C100.176 21.0521 99.8494 20.9045 99.8494 20.1111L99.8425 20.1077ZM95.7522 18.315C95.7248 20.3756 94.3991 21.7253 92.2217 21.7253C90.8411 21.7253 89.986 21.0487 89.986 19.9909C89.986 18.7271 90.9854 18.0196 92.7197 18.0196H95.7488V18.315H95.7522ZM106.756 11.697L106.375 9.43376H102.611V24.5517H106.759V17.1404C106.759 14.8463 107.7 13.2012 110.173 13.2012H111.822V9.4372H111.114C108.762 9.4372 107.584 10.3507 106.759 11.7004L106.756 11.697ZM119.844 19.5513V12.9334H123.316V9.43376H119.844V5.19922H115.695V9.43376H113.195V12.9334H115.695V20.2279C115.695 23.1093 117.138 24.5517 120.019 24.5517H123.402V21.0521H121.345C120.256 21.0521 119.844 20.6126 119.844 19.5513ZM132.551 9.25518C127.874 9.25518 124.786 12.3152 124.786 17.0202C124.786 21.7253 127.815 24.7269 132.847 24.7269C136.875 24.7269 139.495 22.3744 139.966 19.4311H135.879C135.525 20.8427 134.351 21.5776 132.675 21.5776C130.587 21.5776 129.203 20.2829 129.117 18.1364V17.9303H140.086C140.175 17.4598 140.203 16.9584 140.203 16.5188C140.145 12.0782 137.085 9.25518 132.555 9.25518H132.551ZM129.199 15.2275C129.436 13.4348 130.786 12.3461 132.582 12.3461C134.464 12.3461 135.728 13.3764 136.023 15.2275H129.199ZM149.112 15.2584C146.934 14.994 145.64 14.8772 145.64 13.7301C145.64 12.7582 146.697 12.1709 148.315 12.1709C149.932 12.1709 151.138 12.9059 151.255 14.1113H155.225C155.019 11.0239 152.223 9.2277 148.164 9.2277C144.28 9.19679 141.663 11.1681 141.663 14.1697C141.663 17.1713 144.396 18.0814 147.927 18.4936C150.369 18.8164 151.395 18.9057 151.395 20.142C151.395 21.1998 150.338 21.7596 148.603 21.7596C146.574 21.7596 145.427 20.8461 145.279 19.5239H141.336C141.511 22.759 144.365 24.7303 148.572 24.7303C152.78 24.7303 155.455 22.8174 155.455 19.8192C155.455 16.4089 152.573 15.6121 149.101 15.2584H149.112ZM162.585 19.5513V12.9334H166.057V9.43376H162.585V5.19922H158.436V9.43376H155.936V12.9334H158.436V20.2279C158.436 23.1093 159.878 24.5517 162.76 24.5517H166.143V21.0521H164.082C162.993 21.0521 162.581 20.6126 162.581 19.5513H162.585ZM174.996 9.46124C170.909 9.46124 168.114 12.5796 168.114 16.9893C168.114 21.6669 171.026 24.7269 175.261 24.7269C178.527 24.7269 181.027 22.6079 181.673 19.6097H180.144C179.557 21.9348 177.586 23.3738 175.144 23.3738C171.82 23.3738 169.731 20.8427 169.673 17.374V17.1095H181.851C181.851 16.9035 181.879 16.6699 181.879 16.4913C181.731 12.0507 178.997 9.46124 174.996 9.46124ZM169.79 15.8422C170.027 12.8132 172.29 10.7835 175.027 10.7835C177.94 10.7835 180.028 12.5762 180.265 15.8422H169.793H169.79ZM190.853 9.46124C188.115 9.46124 186.354 10.8728 185.499 12.8132L185.265 9.63639H183.97V24.5483H185.471V17.1954C185.471 13.3111 187.442 10.8418 190.619 10.8418C193.501 10.8418 195.238 12.7239 195.238 16.2544V24.5483H196.739V16.196C196.739 11.4909 194.239 9.46124 190.856 9.46124H190.853ZM205.854 9.46124C201.767 9.46124 198.971 12.5796 198.971 16.9893C198.971 21.6669 201.884 24.7269 206.118 24.7269C209.384 24.7269 211.885 22.6079 212.53 19.6097H211.002C210.415 21.9348 208.443 23.3738 206.002 23.3738C202.677 23.3738 200.589 20.8427 200.531 17.374V17.1095H212.709C212.709 16.9035 212.736 16.6699 212.736 16.4913C212.589 12.0507 209.855 9.46124 205.854 9.46124ZM200.647 15.8422C200.884 12.8132 203.148 10.7835 205.881 10.7835C208.794 10.7835 210.882 12.5762 211.119 15.8422H200.647ZM216.943 12.6071L216.71 9.63639H215.415V24.5483H216.916V16.9893C216.916 13.9602 217.709 11.0754 221.209 11.0754H222.298V9.63296H221.504C218.74 9.63296 217.562 10.9586 216.947 12.6037L216.943 12.6071ZM235.327 13.1085C234.417 10.9037 232.415 9.46124 229.65 9.46124C225.564 9.46124 222.62 12.5487 222.62 17.0786C222.62 21.6085 225.56 24.7269 229.65 24.7269C232.446 24.7269 234.414 23.257 235.355 20.9319V23.5798C235.355 27.5499 233.473 29.2568 229.884 29.2568C227.088 29.2568 225.148 27.993 224.678 25.7263H223.118C223.589 28.9031 226.147 30.6099 229.767 30.6099C234.592 30.6099 236.856 28.3158 236.856 23.6382V9.63639H235.561L235.324 13.1085H235.327ZM229.767 23.3738C226.443 23.3738 224.149 20.7843 224.149 17.0786C224.149 13.373 226.443 10.7835 229.767 10.7835C233.092 10.7835 235.386 13.373 235.386 17.1061C235.386 20.8392 233.092 23.3703 229.767 23.3703V23.3738ZM250.476 9.63639L245.387 22.6079L240.211 9.63639H238.593L244.566 24.5483L243.594 26.9592C242.917 28.6043 242.653 29.0473 241.125 29.0473H239.243V30.4313H241.537C243.535 30.4313 244.006 29.6655 244.95 27.313L252.097 9.63639H250.48H250.476Z" fill="#005763"/>
</g>
<defs>
<clipPath id="clip0_6100_12021">
<rect width="252.424" height="34" fill="white"/>
</clipPath>
</defs>
</svg>
